<svg width="24" height="24" viewBox="0 0 24 24" fill="none" xmlns="http://www.w3.org/2000/svg">
<path d="M18 18C17.3 18 16.6 17.8 15.9 17.4C15.3 17 14.6 17 14 17.4C12.8 18.2 11.1 18.2 9.90001 17.4C9.30001 17 8.60001 17 8.00001 17.4C6.80001 18.2 5.10001 18.2 3.90001 17.4L2.40001 16.4C2.00001 16.1 1.90001 15.5 2.20001 15C2.50001 14.5 3.10001 14.4 3.60001 14.7L5.10001 15.7C5.70001 16.1 6.40001 16.1 7.00001 15.7C8.20001 14.9 9.90001 14.9 11.1 15.7C11.7 16.1 12.4 16.1 13 15.7C14.2 14.9 15.9 14.9 17.1 15.7C17.7 16.1 18.4 16.1 19 15.7L20.5 14.7C21 14.4 21.6 14.5 21.9 15C22.2 15.5 22.1 16.1 21.6 16.4L20.1 17.4C19.4 17.8 18.7 18 18 18Z" fill="#DDD7FB"/>
<path d="M12 21.5C11.3 21.5 10.6 21.3 9.9 20.9C9.3 20.5 8.6 20.5 8 20.9C7.6 21.1 7 21 6.7 20.6C6.4 20.2 6.5 19.5 7 19.2C8.2 18.4 9.9 18.4 11.1 19.2C11.7 19.6 12.4 19.6 13 19.2C14.2 18.4 15.9 18.4 17.1 19.2C17.6 19.5 17.7 20.1 17.4 20.6C17.1 21.1 16.5 21.2 16 20.9C15.4 20.5 14.7 20.5 14.1 20.9C13.4 21.2 12.7 21.5 12 21.5Z" fill="#DDD7FB"/>
<path d="M12 14.5C11.3 14.5 10.6 14.3 9.9 13.9C9.3 13.5 8.6 13.5 8 13.9C7.6 14.1 7 14 6.7 13.6C6.4 13.1 6.5 12.5 7 12.2C8.2 11.4 9.9 11.4 11.1 12.2C11.7 12.6 12.4 12.6 13 12.2C14.2 11.4 15.9 11.4 17.1 12.2C17.6 12.5 17.7 13.1 17.4 13.6C17.1 14.1 16.5 14.2 16 13.9C15.4 13.5 14.7 13.5 14.1 13.9C13.4 14.2 12.7 14.5 12 14.5Z" fill="#DDD7FB"/>
<path d="M14 8C13.7 8 13.5 7.9 13.3 7.7L12 6.4L10.7 7.7C10.3 8.1 9.7 8.1 9.3 7.7C8.9 7.3 8.9 6.7 9.3 6.3L11.3 4.3C11.7 3.9 12.3 3.9 12.7 4.3L14.7 6.3C15.1 6.7 15.1 7.3 14.7 7.7C14.5 7.9 14.3 8 14 8Z" fill="#FFE8B5"/>
<path d="M12 11C11.4 11 11 10.6 11 10V5C11 4.4 11.4 4 12 4C12.6 4 13 4.4 13 5V10C13 10.6 12.6 11 12 11Z" fill="#FFE8B5"/>
</svg>
